<svg xmlns="http://www.w3.org/2000/svg" viewBox="0 0 269.283 269.283">
    <path d="M229.719 78.086c-3.726-4.694-9.48-7.713-15.936-7.713H20.326C9.116 70.373 0 79.462 0 90.639V178.6c0 11.199 9.121 20.309 20.326 20.309h193.457c6.505 0 12.319-3.079 16.034-7.854 3.693-4.743 9.034-10.351 14.718-12.287 10.943-3.72 24.748-12.858 24.748-35.251v-19.314c0-.315-.326-27.223-24.655-34.495-5.755-1.718-11.172-6.917-14.909-11.622zm16.546 43.105v26.216c0 6.005-2.725 10.878-6.081 10.878-3.361 0-6.086-4.873-6.086-10.878v-26.14c0-6.005 2.725-10.894 6.086-10.916 3.356-.022 6.081 4.829 6.081 10.84zm-35.197-21.757v70.36c0 3.356-2.725 6.081-6.07 6.081H29.121c-3.345 0-6.07-2.725-6.07-6.081v-70.36c0-3.35 2.725-6.075 6.07-6.075h175.878c3.344 0 6.069 2.725 6.069 6.075z" fill="#010002"/>
    <path d="M36.246 120.565v28.142c0 6.799 5.515 12.319 12.319 12.319h134.573c6.804 0 12.319-5.515 12.319-12.319v-28.142c0-6.804-5.515-12.319-12.319-12.319H48.565c-6.804.005-12.319 5.52-12.319 12.319z" fill="#010002"/>
</svg>
