<svg xmlns="http://www.w3.org/2000/svg" viewBox="0 0 58.249 58.249">
    <path fill="#f3d55b" d="M1 33.071l-1-1v-2l1-1h2l1 1v2l-1 1zm6-5l-1-1v-2l1-1h2l1 1v2l-1 1zm6-6l-1-1v-2l1-1h2l1 1v2l-1 1z"/>
    <path fill="#f9eab0" d="M11.485 38.89l8.485 8.485-1.414 1.414-8.485-8.485zm5.658-5.657l8.485 8.486-1.414 1.414-8.485-8.485zm5.656-5.657l8.485 8.485-1.414 1.414-8.486-8.485zm-18.487 4.14l2.931 2.931-1.414 1.415L2.9 33.13zM9.97 26.06l2.93 2.93-1.414 1.415-2.931-2.931zm5.654-5.658l2.931 2.932-1.414 1.414-2.931-2.932z"/>
    <path d="M25.264 16.502L4.981 37.068l4.243 4.243 20.283-20.565c2.072-2.094 4.957-3.206 7.929-3.193l7.543.084c.768.009 1.146-.917.598-1.465A42.75 42.75 0 0029.839.432c-.548-.548-1.474-.171-1.465.598l.084 7.543c.012 2.972-1.122 5.835-3.194 7.929z" fill="#e4c05c"/>
    <path fill="#f3d55b" d="M6.701 45.419l2.522-4.109-4.242-4.242-3.937 2.694z"/>
    <path d="M40.183 15.312a1 1 0 01-.316-.052 9.864 9.864 0 00-2.42-.48.999.999 0 11.141-1.994c.992.069 1.972.265 2.912.578a.999.999 0 01-.317 1.948z" fill="#fff"/>
    <path d="M55.326 3.534c-3.898-3.898-10.242-3.9-14.127-.014l-3.141 3.018 1.386 1.441 3.155-3.031a7.942 7.942 0 015.657-2.332 7.94 7.94 0 015.656 2.332c3.119 3.12 3.119 8.195 0 11.314L36.145 34.029c-.099-.058-.206-.099-.31-.147-.084-.04-.166-.086-.253-.12-.073-.028-.15-.045-.226-.068a3.997 3.997 0 00-1.244-.214c-.613 0-1.198.15-1.733.408-.023.011-.044.024-.067.036a3.707 3.707 0 00-1.029.724L17.142 48.789c-.178.178-.331.37-.469.57-.047.068-.082.141-.124.211a4.04 4.04 0 00-.227.425c-.038.085-.067.172-.099.259a4.044 4.044 0 00-.186.7c-.028.17-.043.34-.05.512-.002.05-.015.099-.015.15 0 .022.006.042.006.064.003.222.024.442.064.661.004.024.004.048.009.072.047.234.118.464.208.688.03.076.071.146.106.219.052.11.096.222.158.328l-.09.09c-1.504 1.504-3.513 2.332-5.657 2.332s-4.153-.828-5.657-2.332a7.99 7.99 0 01-.591-10.647l-1.562-1.248a9.988 9.988 0 00.739 13.31 9.963 9.963 0 007.071 2.924 9.97 9.97 0 007.071-2.924l.101-.101a3.973 3.973 0 004.849-.606L36.94 40.303a3.971 3.971 0 00.606-4.848l2.17-2.171a3.957 3.957 0 001.026 1.825c.753.753 1.757 1.168 2.828 1.168s2.075-.415 2.829-1.168l5.342-5.342a4.004 4.004 0 000-5.657 3.96 3.96 0 00-1.826-1.026l5.408-5.408c3.901-3.898 3.901-10.242.003-14.142zm-4.997 24.82l-5.342 5.342c-.751.75-2.078.752-2.829 0a1.985 1.985 0 01-.582-1.414c0-.536.207-1.038.582-1.414l5.343-5.343a1.984 1.984 0 011.414-.581c.536 0 1.039.206 1.414.581a2 2 0 010 2.829zM35.527 38.89L21.385 53.032c-.751.752-2.077.752-2.828 0-.096-.096-.18-.2-.252-.309-.041-.062-.071-.131-.105-.197-.025-.049-.056-.096-.077-.146a2.017 2.017 0 010-1.525c.022-.053.054-.102.081-.153.033-.064.061-.13.101-.19.072-.109.156-.213.252-.309l14.142-14.142c.751-.752 2.078-.75 2.829 0 .375.375.582.877.582 1.414s-.207 1.04-.583 1.415z" fill="#edac56"/>
</svg>
